<svg xmlns="http://www.w3.org/2000/svg" width="512" height="512" viewBox="0 0 512 512" version="1.1">
	<path d="M 233.750 55.080 C 222.338 66.143, 213 75.969, 213 76.915 C 213 77.861, 216.479 81.902, 220.732 85.894 L 228.463 93.153 213.482 107.771 C 205.242 115.811, 191.300 129.372, 182.500 137.905 C 159.756 159.960, 134.747 184.316, 110.784 207.750 C 99.394 218.888, 89.484 228, 88.761 228 C 88.038 228, 84.320 224.850, 80.500 221 C 76.680 217.150, 72.758 214, 71.786 214 C 69.483 214, 29 253.739, 29 255.999 C 29 256.950, 36.537 265.173, 45.750 274.274 C 65.895 294.173, 70.061 297.946, 71.920 297.977 C 72.701 297.990, 76.435 295.012, 80.218 291.359 L 87.097 284.719 90.232 287.609 C 91.956 289.199, 94.333 291.400, 95.515 292.500 C 97.963 294.779, 149.475 344.646, 173.500 367.995 C 182.300 376.547, 195.786 389.609, 203.469 397.022 C 211.152 404.435, 219.673 412.656, 222.403 415.291 L 227.368 420.082 220.184 427.315 C 216.233 431.292, 213 434.996, 213 435.545 C 213 436.541, 252.074 474.787, 254.629 476.292 C 255.368 476.728, 256.767 476.644, 257.737 476.106 C 258.707 475.568, 268.460 466.135, 279.410 455.144 L 299.321 435.161 293.160 428.745 C 289.772 425.217, 287 421.862, 287 421.290 C 287 420.485, 336.639 371.403, 358.132 350.956 C 360.130 349.055, 375.811 333.775, 392.979 317 C 410.146 300.225, 424.936 286.371, 425.846 286.214 C 426.779 286.053, 429.883 288.341, 432.966 291.464 C 435.972 294.509, 439.219 297, 440.180 297 C 442.498 297, 482 258.232, 482 255.957 C 482 253.881, 442.222 215, 440.098 215 C 439.307 215, 435.590 217.964, 431.838 221.586 C 428.086 225.208, 424.608 228.021, 424.109 227.836 C 423.252 227.518, 364.202 169.803, 309.693 116.006 L 284.875 91.513 291.938 84.858 C 295.822 81.198, 299 77.534, 299 76.715 C 299 74.802, 258.599 35.587, 256.262 35.233 C 255.127 35.061, 247.121 42.119, 233.750 55.080 M 244.355 65.190 C 238.660 70.794, 234 76.137, 234 77.063 C 234 78.927, 254.327 99, 256.214 99 C 256.866 99, 262.369 94.031, 268.442 87.958 L 279.484 76.916 268.404 65.958 C 262.310 59.931, 256.736 55, 256.017 55 C 255.298 55, 250.050 59.585, 244.355 65.190 M 265.500 110.533 C 261.100 114.629, 256.825 117.985, 256 117.990 C 255.175 117.994, 251.125 114.860, 247 111.025 C 242.875 107.190, 239.210 104.153, 238.855 104.276 C 237.593 104.714, 188.724 151.982, 132 207.630 C 121.825 217.612, 110.426 228.739, 106.670 232.355 C 102.134 236.721, 100.103 239.357, 100.624 240.201 C 101.056 240.899, 104.467 244.365, 108.204 247.902 C 111.942 251.439, 115 255.070, 115 255.970 C 115 256.871, 111.400 261.131, 107 265.438 C 102.600 269.745, 99 273.644, 99 274.102 C 99 274.880, 110.661 286.448, 173.491 348 C 187.246 361.475, 207.156 381.028, 217.735 391.451 L 236.970 410.403 240.135 407.451 C 241.875 405.828, 245.737 402.137, 248.716 399.250 C 251.695 396.362, 254.896 394, 255.830 394 C 256.763 394, 261.477 397.854, 266.306 402.565 C 271.135 407.276, 275.712 410.988, 276.477 410.815 C 277.743 410.528, 299.774 389.512, 345.500 344.970 C 354.850 335.862, 370.600 320.519, 380.500 310.873 C 390.400 301.228, 402.438 289.594, 407.250 285.020 C 412.062 280.446, 416 276.348, 416 275.912 C 416 275.477, 411.950 271.192, 407 266.391 C 402.050 261.589, 398 256.896, 398 255.962 C 398 255.027, 401.600 250.879, 406 246.743 C 410.400 242.606, 414 238.572, 414 237.777 C 414 236.981, 410.738 233.243, 406.750 229.469 C 392.787 216.253, 341.866 167.195, 306.015 132.421 C 280.523 107.694, 275.522 103.035, 274.500 103.060 C 273.950 103.073, 269.900 106.436, 265.500 110.533 M 60.578 244.112 C 54.760 249.674, 50 254.954, 50 255.845 C 50 257.653, 69.822 278, 71.584 278 C 73.477 278, 94 257.929, 94 256.078 C 94 254.606, 73.151 234, 71.662 234 C 71.383 234, 66.395 238.550, 60.578 244.112 M 427.708 244.128 C 421.819 249.698, 417 255.006, 417 255.924 C 417 257.820, 436.471 277.304, 439.441 278.380 C 440.995 278.943, 443.545 276.929, 452.191 268.309 C 458.136 262.383, 463 256.843, 463 255.999 C 463 253.670, 442.829 234, 440.441 234 C 439.246 234, 434.027 238.151, 427.708 244.128 M 253.379 414.264 C 252.763 414.944, 247.925 419.726, 242.629 424.890 C 237.333 430.055, 233 434.817, 233 435.474 C 233 437.581, 253.787 457, 256.043 457 C 258.343 457, 279 437.575, 279 435.413 C 279 433.676, 258.275 413.557, 256.184 413.264 C 255.258 413.133, 253.996 413.583, 253.379 414.264" stroke="none" fill="black" fill-rule="evenodd"/>
</svg>