<svg data-v-fde0c5aa="" xmlns="http://www.w3.org/2000/svg" viewBox="0 0 300 300" class="iconLeftSlogan"><!----><defs data-v-fde0c5aa=""><!----></defs><rect data-v-fde0c5aa="" fill="transparent" x="0" y="0" width="300px" height="300px" class="logo-background-square"></rect><defs data-v-fde0c5aa=""><!----></defs><g data-v-fde0c5aa="" id="21668d67-8612-4bf4-b189-a2e2cda0e258" fill="#000000" transform="matrix(3.2526146802553257,0,0,3.2526146802553257,121.92650918838693,100.64336267910406)"><path d="M6.84 7.55L6.56 8.89L6.56 8.89Q6.19 8.68 5.88 8.54L5.88 8.54L5.88 8.54Q5.57 8.40 5.28 8.31L5.28 8.31L5.28 8.31Q4.98 8.22 4.69 8.18L4.69 8.18L4.69 8.18Q4.40 8.13 4.07 8.13L4.07 8.13L4.07 8.13Q3.66 8.13 3.32 8.26L3.32 8.26L3.32 8.26Q2.98 8.38 2.73 8.59L2.73 8.59L2.73 8.59Q2.49 8.79 2.35 9.06L2.35 9.06L2.35 9.06Q2.22 9.32 2.22 9.60L2.22 9.60L2.22 9.60Q2.22 9.88 2.30 10.11L2.30 10.11L2.30 10.11Q2.38 10.34 2.62 10.54L2.62 10.54L2.62 10.54Q2.86 10.75 3.30 10.94L3.30 10.94L3.30 10.94Q3.75 11.14 4.48 11.35L4.48 11.35L4.48 11.35Q5.15 11.55 5.68 11.81L5.68 11.81L5.68 11.81Q6.20 12.07 6.56 12.41L6.56 12.41L6.56 12.41Q6.91 12.76 7.10 13.19L7.10 13.19L7.10 13.19Q7.28 13.63 7.28 14.18L7.28 14.18L7.28 14.18Q7.28 14.88 7.01 15.44L7.01 15.44L7.01 15.44Q6.74 16.00 6.27 16.41L6.27 16.41L6.27 16.41Q5.80 16.82 5.18 17.04L5.18 17.04L5.18 17.04Q4.56 17.26 3.86 17.26L3.86 17.26L3.86 17.26Q3.37 17.26 2.90 17.19L2.90 17.19L2.90 17.19Q2.43 17.12 2.02 17.00L2.02 17.00L2.02 17.00Q1.61 16.88 1.26 16.71L1.26 16.71L1.26 16.71Q0.91 16.54 0.65 16.34L0.65 16.34L0.96 14.94L0.96 14.94Q1.64 15.53 2.37 15.80L2.37 15.80L2.37 15.80Q3.10 16.06 3.86 16.06L3.86 16.06L3.86 16.06Q4.27 16.06 4.66 15.95L4.66 15.95L4.66 15.95Q5.04 15.83 5.33 15.61L5.33 15.61L5.33 15.61Q5.63 15.39 5.80 15.06L5.80 15.06L5.80 15.06Q5.98 14.74 5.98 14.32L5.98 14.32L5.98 14.32Q5.98 14.05 5.90 13.81L5.90 13.81L5.90 13.81Q5.81 13.57 5.55 13.34L5.55 13.34L5.55 13.34Q5.29 13.10 4.81 12.88L4.81 12.88L4.81 12.88Q4.32 12.65 3.52 12.41L3.52 12.41L3.52 12.41Q2.72 12.17 2.21 11.88L2.21 11.88L2.21 11.88Q1.71 11.59 1.42 11.26L1.42 11.26L1.42 11.26Q1.13 10.92 1.03 10.53L1.03 10.53L1.03 10.53Q0.92 10.14 0.92 9.71L0.92 9.71L0.92 9.71Q0.92 9.27 1.10 8.78L1.10 8.78L1.10 8.78Q1.29 8.30 1.67 7.89L1.67 7.89L1.67 7.89Q2.06 7.48 2.67 7.21L2.67 7.21L2.67 7.21Q3.28 6.94 4.14 6.94L4.14 6.94L4.14 6.94Q4.53 6.94 4.88 6.97L4.88 6.97L4.88 6.97Q5.22 7.01 5.55 7.08L5.55 7.08L5.55 7.08Q5.87 7.16 6.19 7.27L6.19 7.27L6.19 7.27Q6.50 7.39 6.84 7.55L6.84 7.55ZM10.53 7.11L10.53 11.71L14.36 7.11L16.00 7.11L11.85 11.81L16.44 17.09L14.77 17.09L10.53 12.19L10.53 17.09L9.13 17.09L9.13 17.09Q9.20 16.68 9.21 15.90L9.21 15.90L9.21 15.90Q9.23 15.13 9.23 14.12L9.23 14.12L9.23 10.08L9.23 10.08Q9.23 9.07 9.21 8.30L9.21 8.30L9.21 8.30Q9.20 7.52 9.13 7.11L9.13 7.11L10.53 7.11ZM17.94 7.11L22.56 7.11L22.56 8.10L20.88 8.10L20.88 16.10L22.56 16.10L22.56 17.09L17.94 17.09L17.94 16.10L19.58 16.10L19.58 8.10L17.94 8.10L17.94 7.11ZM24.85 13.98L24.85 13.98L24.85 9.28L24.85 9.28Q24.85 8.80 24.84 8.38L24.84 8.38L24.84 8.38Q24.83 7.97 24.81 7.64L24.81 7.64L24.81 7.64Q24.79 7.31 24.75 7.11L24.75 7.11L24.75 7.11Q24.89 7.10 25.11 7.09L25.11 7.09L25.11 7.09Q25.33 7.08 25.60 7.08L25.60 7.08L25.60 7.08Q25.87 7.07 26.17 7.06L26.17 7.06L26.17 7.06Q26.47 7.05 26.77 7.05L26.77 7.05L26.77 7.05Q27.06 7.05 27.34 7.04L27.34 7.04L27.34 7.04Q27.62 7.04 27.86 7.04L27.86 7.04L27.86 7.04Q28.13 7.04 28.48 7.07L28.48 7.07L28.48 7.07Q28.83 7.10 29.22 7.19L29.22 7.19L29.22 7.19Q29.61 7.28 30.01 7.44L30.01 7.44L30.01 7.44Q30.42 7.60 30.80 7.86L30.80 7.86L30.80 7.86Q31.18 8.12 31.51 8.49L31.51 8.49L31.51 8.49Q31.85 8.86 32.10 9.37L32.10 9.37L32.10 9.37Q32.35 9.87 32.49 10.53L32.49 10.53L32.49 10.53Q32.64 11.19 32.64 12.03L32.64 12.03L32.64 12.03Q32.64 13.05 32.42 13.83L32.42 13.83L32.42 13.83Q32.19 14.60 31.81 15.17L31.81 15.17L31.81 15.17Q31.43 15.74 30.93 16.12L30.93 16.12L30.93 16.12Q30.43 16.50 29.89 16.73L29.89 16.73L29.89 16.73Q29.34 16.97 28.78 17.06L28.78 17.06L28.78 17.06Q28.22 17.16 27.72 17.16L27.72 17.16L27.72 17.16Q27.56 17.16 27.34 17.15L27.34 17.15L27.34 17.15Q27.13 17.15 26.89 17.15L26.89 17.15L26.89 17.15Q26.65 17.14 26.39 17.14L26.39 17.14L26.39 17.14Q26.14 17.13 25.90 17.12L25.90 17.12L25.90 17.12Q25.34 17.11 24.75 17.09L24.75 17.09L24.75 17.09Q24.79 16.88 24.80 16.56L24.80 16.56L24.80 16.56Q24.82 16.24 24.83 15.84L24.83 15.84L24.83 15.84Q24.84 15.44 24.85 14.96L24.85 14.96L24.85 14.96Q24.85 14.49 24.85 13.98ZM26.15 8.17L26.15 15.96L26.15 15.96Q26.39 15.98 26.77 16.01L26.77 16.01L26.77 16.01Q27.16 16.03 27.65 16.03L27.65 16.03L27.65 16.03Q28.11 16.03 28.56 15.94L28.56 15.94L28.56 15.94Q29.00 15.85 29.41 15.66L29.41 15.66L29.41 15.66Q29.82 15.46 30.17 15.16L30.17 15.16L30.17 15.16Q30.52 14.85 30.77 14.42L30.77 14.42L30.77 14.42Q31.02 13.99 31.17 13.43L31.17 13.43L31.17 13.43Q31.31 12.87 31.31 12.17L31.31 12.17L31.31 12.17Q31.31 11.02 31.02 10.25L31.02 10.25L31.02 10.25Q30.73 9.47 30.24 9.01L30.24 9.01L30.24 9.01Q29.74 8.54 29.08 8.34L29.08 8.34L29.08 8.34Q28.42 8.13 27.69 8.13L27.69 8.13L27.69 8.13Q27.51 8.13 27.30 8.14L27.30 8.14L27.30 8.14Q27.09 8.14 26.88 8.15L26.88 8.15L26.88 8.15Q26.66 8.16 26.47 8.16L26.47 8.16L26.47 8.16Q26.28 8.16 26.15 8.17L26.15 8.17ZM34.66 13.98L34.66 13.98L34.66 9.28L34.66 9.28Q34.66 8.80 34.65 8.38L34.65 8.38L34.65 8.38Q34.64 7.97 34.62 7.64L34.62 7.64L34.62 7.64Q34.60 7.31 34.56 7.11L34.56 7.11L34.56 7.11Q34.70 7.10 34.92 7.09L34.92 7.09L34.92 7.09Q35.14 7.08 35.41 7.08L35.41 7.08L35.41 7.08Q35.68 7.07 35.98 7.06L35.98 7.06L35.98 7.06Q36.28 7.05 36.58 7.05L36.58 7.05L36.58 7.05Q36.87 7.05 37.15 7.04L37.15 7.04L37.15 7.04Q37.43 7.04 37.67 7.04L37.67 7.04L37.67 7.04Q37.94 7.04 38.29 7.07L38.29 7.07L38.29 7.07Q38.64 7.10 39.03 7.19L39.03 7.19L39.03 7.19Q39.42 7.28 39.82 7.44L39.82 7.44L39.82 7.44Q40.23 7.60 40.61 7.86L40.61 7.86L40.61 7.86Q40.99 8.12 41.32 8.49L41.32 8.49L41.32 8.49Q41.66 8.86 41.91 9.37L41.91 9.37L41.91 9.37Q42.16 9.87 42.30 10.53L42.30 10.53L42.30 10.53Q42.45 11.19 42.45 12.03L42.45 12.03L42.45 12.03Q42.45 13.05 42.23 13.83L42.23 13.83L42.23 13.83Q42 14.60 41.62 15.17L41.62 15.17L41.62 15.17Q41.24 15.74 40.74 16.12L40.74 16.12L40.74 16.12Q40.24 16.50 39.70 16.73L39.70 16.73L39.70 16.73Q39.15 16.97 38.59 17.06L38.59 17.06L38.59 17.06Q38.03 17.16 37.53 17.16L37.53 17.16L37.53 17.16Q37.37 17.16 37.15 17.15L37.15 17.15L37.15 17.15Q36.93 17.15 36.70 17.15L36.70 17.15L36.70 17.15Q36.46 17.14 36.20 17.14L36.20 17.14L36.20 17.14Q35.95 17.13 35.71 17.12L35.71 17.12L35.71 17.12Q35.15 17.11 34.56 17.09L34.56 17.09L34.56 17.09Q34.60 16.88 34.61 16.56L34.61 16.56L34.61 16.56Q34.63 16.24 34.64 15.84L34.64 15.84L34.64 15.84Q34.65 15.44 34.65 14.96L34.65 14.96L34.65 14.96Q34.66 14.49 34.66 13.98ZM35.96 8.17L35.96 15.96L35.96 15.96Q36.20 15.98 36.58 16.01L36.58 16.01L36.58 16.01Q36.97 16.03 37.46 16.03L37.46 16.03L37.46 16.03Q37.92 16.03 38.37 15.94L38.37 15.94L38.37 15.94Q38.81 15.85 39.22 15.66L39.22 15.66L39.22 15.66Q39.63 15.46 39.98 15.16L39.98 15.16L39.98 15.16Q40.33 14.85 40.58 14.42L40.58 14.42L40.58 14.42Q40.83 13.99 40.97 13.43L40.97 13.43L40.97 13.43Q41.12 12.87 41.12 12.17L41.12 12.17L41.12 12.17Q41.12 11.02 40.83 10.25L40.83 10.25L40.83 10.25Q40.54 9.47 40.04 9.01L40.04 9.01L40.04 9.01Q39.55 8.54 38.89 8.34L38.89 8.34L38.89 8.34Q38.23 8.13 37.50 8.13L37.50 8.13L37.50 8.13Q37.32 8.13 37.11 8.14L37.11 8.14L37.11 8.14Q36.90 8.14 36.69 8.15L36.69 8.15L36.69 8.15Q36.47 8.16 36.28 8.16L36.28 8.16L36.28 8.16Q36.09 8.16 35.96 8.17L35.96 8.17Z"></path></g><defs data-v-fde0c5aa=""><linearGradient data-v-fde0c5aa="" gradientTransform="rotate(25)" id="6f327c7b-906b-4699-b628-01e7de3c2130" x1="0%" y1="0%" x2="100%" y2="0%"><stop data-v-fde0c5aa="" offset="0%" stop-color="#0A3732" stop-opacity="1"></stop><stop data-v-fde0c5aa="" offset="100%" stop-color="#55C388" stop-opacity="1"></stop></linearGradient></defs><g data-v-fde0c5aa="" id="0e3653ed-b073-47f7-8913-e0e10c6ff39c" stroke="none" fill="url(#6f327c7b-906b-4699-b628-01e7de3c2130)" transform="matrix(2.220022151464858,0,0,2.220022151464858,40,114.47964557656226)"><path d="M4.029 14.362L14.362 4.028l.707.707L4.736 15.07zM17.135 27.47L27.47 17.135l.707.707-10.333 10.333zM4.029 17.841l.707-.707 10.333 10.334-.707.707zM17.135 4.735l.708-.707L28.176 14.36l-.707.707z"></path><g><path d="M16 1.414l1.683 1.683L16 4.779l-1.683-1.683L16 1.414M16 0l-3.097 3.097L16 6.194l3.097-3.097L16 0zM16 27.221l1.683 1.683L16 30.586l-1.683-1.683L16 27.221m0-1.415l-3.097 3.097L16 32l3.097-3.097L16 25.806zM3.097 14.317L4.779 16l-1.683 1.683L1.414 16l1.683-1.683m0-1.414L0 16l3.097 3.097L6.194 16l-3.097-3.097zM28.903 14.317L30.586 16l-1.683 1.683L27.221 16l1.682-1.683m0-1.414L25.806 16l3.097 3.097L32 16l-3.097-3.097z"></path></g></g><defs data-v-fde0c5aa=""><!----></defs><g data-v-fde0c5aa="" id="1e64960c-2aff-4bf6-b9ae-53125a97d4de" fill="#000000" transform="matrix(0.5084871294422816,0,0,0.5084871294422816,123.29831761849249,165.03938036587567)"><path d="M2.16 12.38L7.99 12.38L7.99 13.02L1.46 13.02L1.46 3.78L7.77 3.78L7.77 4.42L2.16 4.42L2.16 7.99L6.59 7.99L6.59 8.65L2.16 8.65L2.16 12.38ZM23.84 3.78L20.29 13.02L19.46 13.02L15.89 3.78L16.65 3.78L19.38 10.93L19.87 12.36L20.36 10.93L23.10 3.78L23.84 3.78ZM33.32 12.38L39.16 12.38L39.16 13.02L32.62 13.02L32.62 3.78L38.93 3.78L38.93 4.42L33.32 4.42L33.32 7.99L37.76 7.99L37.76 8.65L33.32 8.65L33.32 12.38ZM55.13 13.02L54.31 13.02L51.66 9.02L51.62 9.02L48.89 9.02L48.89 13.02L48.19 13.02L48.19 3.78L51.62 3.78L51.62 3.78Q53.00 3.78 53.82 4.48L53.82 4.48L53.82 4.48Q54.64 5.18 54.64 6.40L54.64 6.40L54.64 6.40Q54.64 7.41 54.05 8.07L54.05 8.07L54.05 8.07Q53.47 8.74 52.44 8.93L52.44 8.93L55.13 13.02ZM48.89 4.42L48.89 8.36L51.60 8.36L51.60 8.36Q52.72 8.36 53.32 7.85L53.32 7.85L53.32 7.85Q53.91 7.35 53.91 6.40L53.91 6.40L53.91 6.40Q53.91 5.45 53.32 4.93L53.32 4.93L53.32 4.93Q52.72 4.42 51.60 4.42L51.60 4.42L48.89 4.42ZM69.85 3.78L66.57 9.42L66.57 13.02L65.87 13.02L65.87 9.42L62.59 3.78L63.42 3.78L66.22 8.69L69.02 3.78L69.85 3.78ZM81.82 3.64L81.82 3.64Q83.12 3.64 84.08 4.22L84.08 4.22L84.08 4.22Q85.04 4.80 85.55 5.87L85.55 5.87L85.55 5.87Q86.07 6.94 86.07 8.40L86.07 8.40L86.07 8.40Q86.07 9.86 85.55 10.93L85.55 10.93L85.55 10.93Q85.04 12.00 84.08 12.58L84.08 12.58L84.08 12.58Q83.12 13.16 81.82 13.16L81.82 13.16L81.82 13.16Q80.51 13.16 79.56 12.58L79.56 12.58L79.56 12.58Q78.60 12.00 78.08 10.93L78.08 10.93L78.08 10.93Q77.56 9.86 77.56 8.40L77.56 8.40L77.56 8.40Q77.56 6.94 78.08 5.87L78.08 5.87L78.08 5.87Q78.60 4.80 79.56 4.22L79.56 4.22L79.56 4.22Q80.51 3.64 81.82 3.64L81.82 3.64ZM81.82 4.28L81.82 4.28Q80.74 4.28 79.95 4.78L79.95 4.78L79.95 4.78Q79.16 5.28 78.73 6.21L78.73 6.21L78.73 6.21Q78.30 7.14 78.30 8.40L78.30 8.40L78.30 8.40Q78.30 9.66 78.73 10.59L78.73 10.59L78.73 10.59Q79.16 11.52 79.95 12.02L79.95 12.02L79.95 12.02Q80.74 12.52 81.82 12.52L81.82 12.52L81.82 12.52Q82.89 12.52 83.69 12.02L83.69 12.02L83.69 12.02Q84.49 11.52 84.92 10.59L84.92 10.59L84.92 10.59Q85.34 9.66 85.34 8.40L85.34 8.40L85.34 8.40Q85.34 7.14 84.92 6.21L84.92 6.21L84.92 6.21Q84.49 5.28 83.69 4.78L83.69 4.78L83.69 4.78Q82.89 4.28 81.82 4.28L81.82 4.28ZM102.49 3.78L102.49 13.02L101.63 13.02L96.73 5.77L96.04 4.54L96.03 4.54L96.07 5.70L96.07 13.02L95.40 13.02L95.40 3.78L96.28 3.78L101.16 11.02L101.86 12.26L101.84 11.10L101.84 3.78L102.49 3.78ZM113.11 12.38L118.94 12.38L118.94 13.02L112.41 13.02L112.41 3.78L118.72 3.78L118.72 4.42L113.11 4.42L113.11 7.99L117.54 7.99L117.54 8.65L113.11 8.65L113.11 12.38ZM128.32 3.43L128.13 6.30L127.57 6.30L127.57 3.43L128.32 3.43ZM140.55 3.64L140.55 3.64Q143.15 3.64 144.03 5.68L144.03 5.68L143.43 6.17L143.43 6.17Q143.08 5.18 142.39 4.73L142.39 4.73L142.39 4.73Q141.69 4.28 140.56 4.28L140.56 4.28L140.56 4.28Q139.75 4.28 139.15 4.54L139.15 4.54L139.15 4.54Q138.54 4.79 138.23 5.22L138.23 5.22L138.23 5.22Q137.91 5.66 137.91 6.20L137.91 6.20L137.91 6.20Q137.91 6.73 138.18 7.08L138.18 7.08L138.18 7.08Q138.45 7.43 139.08 7.68L139.08 7.68L139.08 7.68Q139.72 7.92 140.84 8.12L140.84 8.12L140.84 8.12Q142.65 8.43 143.40 9.02L143.40 9.02L143.40 9.02Q144.16 9.60 144.16 10.64L144.16 10.64L144.16 10.64Q144.16 11.38 143.72 11.96L143.72 11.96L143.72 11.96Q143.29 12.53 142.50 12.84L142.50 12.84L142.50 12.84Q141.71 13.16 140.69 13.16L140.69 13.16L140.69 13.16Q139.23 13.16 138.23 12.58L138.23 12.58L138.23 12.58Q137.23 12.00 136.86 10.95L136.86 10.95L137.48 10.47L137.48 10.47Q137.76 11.47 138.61 11.99L138.61 11.99L138.61 11.99Q139.45 12.52 140.70 12.52L140.70 12.52L140.70 12.52Q141.90 12.52 142.67 12.03L142.67 12.03L142.67 12.03Q143.43 11.54 143.43 10.68L143.43 10.68L143.43 10.68Q143.43 9.94 142.81 9.51L142.81 9.51L142.81 9.51Q142.18 9.07 140.64 8.81L140.64 8.81L140.64 8.81Q139.34 8.58 138.59 8.26L138.59 8.26L138.59 8.26Q137.83 7.94 137.50 7.46L137.50 7.46L137.50 7.46Q137.17 6.99 137.17 6.27L137.17 6.27L137.17 6.27Q137.17 5.56 137.59 4.96L137.59 4.96L137.59 4.96Q138.00 4.35 138.76 4.00L138.76 4.00L138.76 4.00Q139.52 3.64 140.55 3.64L140.55 3.64ZM170.59 13.02L169.43 10.12L165.00 10.12L163.86 13.02L163.11 13.02L166.81 3.78L167.64 3.78L171.33 13.02L170.59 13.02ZM165.27 9.48L169.18 9.48L167.57 5.45L167.23 4.47L167.22 4.47L166.88 5.42L165.27 9.48ZM187.12 10.68L187.12 10.68Q186.73 11.86 185.76 12.51L185.76 12.51L185.76 12.51Q184.79 13.16 183.43 13.16L183.43 13.16L183.43 13.16Q182.17 13.16 181.22 12.58L181.22 12.58L181.22 12.58Q180.26 12.00 179.75 10.92L179.75 10.92L179.75 10.92Q179.23 9.84 179.23 8.40L179.23 8.40L179.23 8.40Q179.23 6.96 179.75 5.88L179.75 5.88L179.75 5.88Q180.26 4.80 181.22 4.22L181.22 4.22L181.22 4.22Q182.17 3.64 183.41 3.64L183.41 3.64L183.41 3.64Q186.19 3.64 187.00 5.92L187.00 5.92L186.31 6.24L186.31 6.24Q185.99 5.26 185.28 4.77L185.28 4.77L185.28 4.77Q184.58 4.28 183.46 4.28L183.46 4.28L183.46 4.28Q182.42 4.28 181.63 4.78L181.63 4.78L181.63 4.78Q180.84 5.28 180.40 6.21L180.40 6.21L180.40 6.21Q179.97 7.14 179.97 8.40L179.97 8.40L179.97 8.40Q179.97 9.66 180.40 10.59L180.40 10.59L180.40 10.59Q180.82 11.52 181.60 12.02L181.60 12.02L181.60 12.02Q182.38 12.52 183.43 12.52L183.43 12.52L183.43 12.52Q184.55 12.52 185.33 11.97L185.33 11.97L185.33 11.97Q186.12 11.42 186.42 10.42L186.42 10.42L187.12 10.68ZM202.47 13.02L201.31 10.12L196.88 10.12L195.73 13.02L194.99 13.02L198.69 3.78L199.51 3.78L203.21 13.02L202.47 13.02ZM197.15 9.48L201.05 9.48L199.44 5.45L199.11 4.47L199.09 4.47L198.76 5.42L197.15 9.48ZM214.84 3.78L214.84 3.78Q217.06 3.78 218.25 4.95L218.25 4.95L218.25 4.95Q219.45 6.12 219.45 8.33L219.45 8.33L219.45 8.33Q219.45 10.60 218.25 11.81L218.25 11.81L218.25 11.81Q217.06 13.02 214.84 13.02L214.84 13.02L211.93 13.02L211.93 3.78L214.84 3.78ZM214.90 12.38L214.90 12.38Q216.75 12.38 217.74 11.33L217.74 11.33L217.74 11.33Q218.72 10.29 218.72 8.33L218.72 8.33L218.72 8.33Q218.72 6.45 217.74 5.44L217.74 5.44L217.74 5.44Q216.75 4.42 214.90 4.42L214.90 4.42L212.63 4.42L212.63 12.38L214.90 12.38ZM229.49 12.38L235.33 12.38L235.33 13.02L228.79 13.02L228.79 3.78L235.10 3.78L235.10 4.42L229.49 4.42L229.49 7.99L233.93 7.99L233.93 8.65L229.49 8.65L229.49 12.38ZM252.95 3.78L252.95 13.02L252.28 13.02L252.28 6.13L252.36 4.45L252.35 4.45L248.98 13.02L248.33 13.02L244.96 4.45L244.94 4.45L245.03 6.13L245.03 13.02L244.36 13.02L244.36 3.78L245.41 3.78L248.19 10.78L248.65 12.19L248.67 12.19L249.12 10.79L251.90 3.78L252.95 3.78ZM268.84 3.78L265.57 9.42L265.57 13.02L264.87 13.02L264.87 9.42L261.59 3.78L262.42 3.78L265.22 8.69L268.02 3.78L268.84 3.78Z"></path></g></svg>