<svg data-v-fde0c5aa="" xmlns="http://www.w3.org/2000/svg" viewBox="0 0 300 300" class="font"><!----><defs data-v-fde0c5aa=""><!----></defs><rect data-v-fde0c5aa="" fill="transparent" x="0" y="0" width="300px" height="300px" class="logo-background-square"></rect><defs data-v-fde0c5aa=""><linearGradient data-v-fde0c5aa="" gradientTransform="rotate(25)" id="17a56f43-1a27-4306-a956-a498effa8eef" x1="0%" y1="0%" x2="100%" y2="0%"><stop data-v-fde0c5aa="" offset="0%" stop-color="#0A3732" stop-opacity="1"></stop><stop data-v-fde0c5aa="" offset="100%" stop-color="#55C388" stop-opacity="1"></stop></linearGradient></defs><g data-v-fde0c5aa="" id="30045cc4-6987-4377-9608-a543cbe8b8b9" fill="url(#17a56f43-1a27-4306-a956-a498effa8eef)" transform="matrix(5.263157990800739,0,0,5.263157990800739,36.578947117754325,86.31578881324492)"><path d="M6.84 7.55L6.56 8.89L6.56 8.89Q6.19 8.68 5.88 8.54L5.88 8.54L5.88 8.54Q5.57 8.40 5.28 8.31L5.28 8.31L5.28 8.31Q4.98 8.22 4.69 8.18L4.69 8.18L4.69 8.18Q4.40 8.13 4.07 8.13L4.07 8.13L4.07 8.13Q3.66 8.13 3.32 8.26L3.32 8.26L3.32 8.26Q2.98 8.38 2.73 8.59L2.73 8.59L2.73 8.59Q2.49 8.79 2.35 9.06L2.35 9.06L2.35 9.06Q2.22 9.32 2.22 9.60L2.22 9.60L2.22 9.60Q2.22 9.88 2.30 10.11L2.30 10.11L2.30 10.11Q2.38 10.34 2.62 10.54L2.62 10.54L2.62 10.54Q2.86 10.75 3.30 10.94L3.30 10.94L3.30 10.94Q3.75 11.14 4.48 11.35L4.48 11.35L4.48 11.35Q5.15 11.55 5.68 11.81L5.68 11.81L5.68 11.81Q6.20 12.07 6.56 12.41L6.56 12.41L6.56 12.41Q6.91 12.76 7.10 13.19L7.10 13.19L7.10 13.19Q7.28 13.63 7.28 14.18L7.28 14.18L7.28 14.18Q7.28 14.88 7.01 15.44L7.01 15.44L7.01 15.44Q6.74 16.00 6.27 16.41L6.27 16.41L6.27 16.41Q5.80 16.82 5.18 17.04L5.18 17.04L5.18 17.04Q4.56 17.26 3.86 17.26L3.86 17.26L3.86 17.26Q3.37 17.26 2.90 17.19L2.90 17.19L2.90 17.19Q2.43 17.12 2.02 17.00L2.02 17.00L2.02 17.00Q1.61 16.88 1.26 16.71L1.26 16.71L1.26 16.71Q0.91 16.54 0.65 16.34L0.65 16.34L0.96 14.94L0.96 14.94Q1.64 15.53 2.37 15.80L2.37 15.80L2.37 15.80Q3.10 16.06 3.86 16.06L3.86 16.06L3.86 16.06Q4.27 16.06 4.66 15.95L4.66 15.95L4.66 15.95Q5.04 15.83 5.33 15.61L5.33 15.61L5.33 15.61Q5.63 15.39 5.80 15.06L5.80 15.06L5.80 15.06Q5.98 14.74 5.98 14.32L5.98 14.32L5.98 14.32Q5.98 14.05 5.90 13.81L5.90 13.81L5.90 13.81Q5.81 13.57 5.55 13.34L5.55 13.34L5.55 13.34Q5.29 13.10 4.81 12.88L4.81 12.88L4.81 12.88Q4.32 12.65 3.52 12.41L3.52 12.41L3.52 12.41Q2.72 12.17 2.21 11.88L2.21 11.88L2.21 11.88Q1.71 11.59 1.42 11.26L1.42 11.26L1.42 11.26Q1.13 10.92 1.03 10.53L1.03 10.53L1.03 10.53Q0.92 10.14 0.92 9.71L0.92 9.71L0.92 9.71Q0.92 9.27 1.10 8.78L1.10 8.78L1.10 8.78Q1.29 8.30 1.67 7.89L1.67 7.89L1.67 7.89Q2.06 7.48 2.67 7.21L2.67 7.21L2.67 7.21Q3.28 6.94 4.14 6.94L4.14 6.94L4.14 6.94Q4.53 6.94 4.88 6.97L4.88 6.97L4.88 6.97Q5.22 7.01 5.55 7.08L5.55 7.08L5.55 7.08Q5.87 7.16 6.19 7.27L6.19 7.27L6.19 7.27Q6.50 7.39 6.84 7.55L6.84 7.55ZM10.53 7.11L10.53 11.71L14.36 7.11L16.00 7.11L11.85 11.81L16.44 17.09L14.77 17.09L10.53 12.19L10.53 17.09L9.13 17.09L9.13 17.09Q9.20 16.68 9.21 15.90L9.21 15.90L9.21 15.90Q9.23 15.13 9.23 14.12L9.23 14.12L9.23 10.08L9.23 10.08Q9.23 9.07 9.21 8.30L9.21 8.30L9.21 8.30Q9.20 7.52 9.13 7.11L9.13 7.11L10.53 7.11ZM17.94 7.11L22.56 7.11L22.56 8.10L20.88 8.10L20.88 16.10L22.56 16.10L22.56 17.09L17.94 17.09L17.94 16.10L19.58 16.10L19.58 8.10L17.94 8.10L17.94 7.11ZM24.85 13.98L24.85 13.98L24.85 9.28L24.85 9.28Q24.85 8.80 24.84 8.38L24.84 8.38L24.84 8.38Q24.83 7.97 24.81 7.64L24.81 7.64L24.81 7.64Q24.79 7.31 24.75 7.11L24.75 7.11L24.75 7.11Q24.89 7.10 25.11 7.09L25.11 7.09L25.11 7.09Q25.33 7.08 25.60 7.08L25.60 7.08L25.60 7.08Q25.87 7.07 26.17 7.06L26.17 7.06L26.17 7.06Q26.47 7.05 26.77 7.05L26.77 7.05L26.77 7.05Q27.06 7.05 27.34 7.04L27.34 7.04L27.34 7.04Q27.62 7.04 27.86 7.04L27.86 7.04L27.86 7.04Q28.13 7.04 28.48 7.07L28.48 7.07L28.48 7.07Q28.83 7.10 29.22 7.19L29.22 7.19L29.22 7.19Q29.61 7.28 30.01 7.44L30.01 7.44L30.01 7.44Q30.42 7.60 30.80 7.86L30.80 7.86L30.80 7.86Q31.18 8.12 31.51 8.49L31.51 8.49L31.51 8.49Q31.85 8.86 32.10 9.37L32.10 9.37L32.10 9.37Q32.35 9.87 32.49 10.53L32.49 10.53L32.49 10.53Q32.64 11.19 32.64 12.03L32.64 12.03L32.64 12.03Q32.64 13.05 32.42 13.83L32.42 13.83L32.42 13.83Q32.19 14.60 31.81 15.17L31.81 15.17L31.81 15.17Q31.43 15.74 30.93 16.12L30.93 16.12L30.93 16.12Q30.43 16.50 29.89 16.73L29.89 16.73L29.89 16.73Q29.34 16.97 28.78 17.06L28.78 17.06L28.78 17.06Q28.22 17.16 27.72 17.16L27.72 17.16L27.72 17.16Q27.56 17.16 27.34 17.15L27.34 17.15L27.34 17.15Q27.13 17.15 26.89 17.15L26.89 17.15L26.89 17.15Q26.65 17.14 26.39 17.14L26.39 17.14L26.39 17.14Q26.14 17.13 25.90 17.12L25.90 17.12L25.90 17.12Q25.34 17.11 24.75 17.09L24.75 17.09L24.75 17.09Q24.79 16.88 24.80 16.56L24.80 16.56L24.80 16.56Q24.82 16.24 24.83 15.84L24.83 15.84L24.83 15.84Q24.84 15.44 24.85 14.96L24.85 14.96L24.85 14.96Q24.85 14.49 24.85 13.98ZM26.15 8.17L26.15 15.96L26.15 15.96Q26.39 15.98 26.77 16.01L26.77 16.01L26.77 16.01Q27.16 16.03 27.65 16.03L27.65 16.03L27.65 16.03Q28.11 16.03 28.56 15.94L28.56 15.94L28.56 15.94Q29.00 15.85 29.41 15.66L29.41 15.66L29.41 15.66Q29.82 15.46 30.17 15.16L30.17 15.16L30.17 15.16Q30.52 14.85 30.77 14.42L30.77 14.42L30.77 14.42Q31.02 13.99 31.17 13.43L31.17 13.43L31.17 13.43Q31.31 12.87 31.31 12.17L31.31 12.17L31.31 12.17Q31.31 11.02 31.02 10.25L31.02 10.25L31.02 10.25Q30.73 9.47 30.24 9.01L30.24 9.01L30.24 9.01Q29.74 8.54 29.08 8.34L29.08 8.34L29.08 8.34Q28.42 8.13 27.69 8.13L27.69 8.13L27.69 8.13Q27.51 8.13 27.30 8.14L27.30 8.14L27.30 8.14Q27.09 8.14 26.88 8.15L26.88 8.15L26.88 8.15Q26.66 8.16 26.47 8.16L26.47 8.16L26.47 8.16Q26.28 8.16 26.15 8.17L26.15 8.17ZM34.66 13.98L34.66 13.98L34.66 9.28L34.66 9.28Q34.66 8.80 34.65 8.38L34.65 8.38L34.65 8.38Q34.64 7.97 34.62 7.64L34.62 7.64L34.62 7.64Q34.60 7.31 34.56 7.11L34.56 7.11L34.56 7.11Q34.70 7.10 34.92 7.09L34.92 7.09L34.92 7.09Q35.14 7.08 35.41 7.08L35.41 7.08L35.41 7.08Q35.68 7.07 35.98 7.06L35.98 7.06L35.98 7.06Q36.28 7.05 36.58 7.05L36.58 7.05L36.58 7.05Q36.87 7.05 37.15 7.04L37.15 7.04L37.15 7.04Q37.43 7.04 37.67 7.04L37.67 7.04L37.67 7.04Q37.94 7.04 38.29 7.07L38.29 7.07L38.29 7.07Q38.64 7.10 39.03 7.19L39.03 7.19L39.03 7.19Q39.42 7.28 39.82 7.44L39.82 7.44L39.82 7.44Q40.23 7.60 40.61 7.86L40.61 7.86L40.61 7.86Q40.99 8.12 41.32 8.49L41.32 8.49L41.32 8.49Q41.66 8.86 41.91 9.37L41.91 9.37L41.91 9.37Q42.16 9.87 42.30 10.53L42.30 10.53L42.30 10.53Q42.45 11.19 42.45 12.03L42.45 12.03L42.45 12.03Q42.45 13.05 42.23 13.83L42.23 13.83L42.23 13.83Q42 14.60 41.62 15.17L41.62 15.17L41.62 15.17Q41.24 15.74 40.74 16.12L40.74 16.12L40.74 16.12Q40.24 16.50 39.70 16.73L39.70 16.73L39.70 16.73Q39.15 16.97 38.59 17.06L38.59 17.06L38.59 17.06Q38.03 17.16 37.53 17.16L37.53 17.16L37.53 17.16Q37.37 17.16 37.15 17.15L37.15 17.15L37.15 17.15Q36.93 17.15 36.70 17.15L36.70 17.15L36.70 17.15Q36.46 17.14 36.20 17.14L36.20 17.14L36.20 17.14Q35.95 17.13 35.71 17.12L35.71 17.12L35.71 17.12Q35.15 17.11 34.56 17.09L34.56 17.09L34.56 17.09Q34.60 16.88 34.61 16.56L34.61 16.56L34.61 16.56Q34.63 16.24 34.64 15.84L34.64 15.84L34.64 15.84Q34.65 15.44 34.65 14.96L34.65 14.96L34.65 14.96Q34.66 14.49 34.66 13.98ZM35.96 8.17L35.96 15.96L35.96 15.96Q36.20 15.98 36.58 16.01L36.58 16.01L36.58 16.01Q36.97 16.03 37.46 16.03L37.46 16.03L37.46 16.03Q37.92 16.03 38.37 15.94L38.37 15.94L38.37 15.94Q38.81 15.85 39.22 15.66L39.22 15.66L39.22 15.66Q39.63 15.46 39.98 15.16L39.98 15.16L39.98 15.16Q40.33 14.85 40.58 14.42L40.58 14.42L40.58 14.42Q40.83 13.99 40.97 13.43L40.97 13.43L40.97 13.43Q41.12 12.87 41.12 12.17L41.12 12.17L41.12 12.17Q41.12 11.02 40.83 10.25L40.83 10.25L40.83 10.25Q40.54 9.47 40.04 9.01L40.04 9.01L40.04 9.01Q39.55 8.54 38.89 8.34L38.89 8.34L38.89 8.34Q38.23 8.13 37.50 8.13L37.50 8.13L37.50 8.13Q37.32 8.13 37.11 8.14L37.11 8.14L37.11 8.14Q36.90 8.14 36.69 8.15L36.69 8.15L36.69 8.15Q36.47 8.16 36.28 8.16L36.28 8.16L36.28 8.16Q36.09 8.16 35.96 8.17L35.96 8.17Z"></path></g><!----><!----></svg>