<svg width="300" height="300" xmlns="http://www.w3.org/2000/svg" class="iconLeftSlogan">
 <defs>
  <linearGradient y2="0%" x2="100%" y1="0%" x1="0%" id="6f327c7b-906b-4699-b628-01e7de3c2130" gradientTransform="rotate(25)">
   <stop stop-color="#0A3732" offset="0%"/>
   <stop stop-color="#55C388" offset="100%"/>
  </linearGradient>
 </defs>

 <g>
  <title>Layer 1</title>
  <rect id="svg_1" class="logo-background-square" height="300" width="300" y="51" x="242" fill="transparent"/>
  <g transform="matrix(8.363705374574307,0,0,8.146436188723538,37.67183865984789,-92.93342137787747) " fill="url(#6f327c7b-906b-4699-b628-01e7de3c2130)" id="0e3653ed-b073-47f7-8913-e0e10c6ff39c">
   <path id="svg_2" d="m1.45943,28.18282l10.333,-10.334l0.707,0.707l-10.333,10.335l-0.707,-0.708zm13.106,13.108l10.335,-10.335l0.707,0.707l-10.333,10.333l-0.709,-0.705zm-13.106,-9.629l0.707,-0.707l10.333,10.334l-0.707,0.707l-10.333,-10.334zm13.106,-13.106l0.708,-0.707l10.333,10.332l-0.707,0.707l-10.334,-10.332z"/>
   <g id="svg_3">
    <path id="svg_4" d="m13.43043,15.23482l1.683,1.683l-1.683,1.682l-1.683,-1.683l1.683,-1.682m0,-1.414l-3.097,3.097l3.097,3.097l3.097,-3.097l-3.097,-3.097zm0,27.221l1.683,1.683l-1.683,1.682l-1.683,-1.683l1.683,-1.682m0,-1.415l-3.097,3.097l3.097,3.097l3.097,-3.097l-3.097,-3.097zm-12.903,-11.489l1.682,1.683l-1.683,1.683l-1.682,-1.683l1.683,-1.683m0,-1.414l-3.097,3.097l3.097,3.097l3.097,-3.097l-3.097,-3.097zm25.806,1.414l1.683,1.683l-1.683,1.683l-1.682,-1.683l1.682,-1.683m0,-1.414l-3.097,3.097l3.097,3.097l3.097,-3.097l-3.097,-3.097z"/>
   </g>
  </g>
 </g>
</svg>